<?xml version="1.0" standalone="no"?><!DOCTYPE svg PUBLIC "-//W3C//DTD SVG 1.1//EN" "http://www.w3.org/Graphics/SVG/1.1/DTD/svg11.dtd"><svg t="1745589220797" class="icon" viewBox="0 0 1024 1024" version="1.1" xmlns="http://www.w3.org/2000/svg" p-id="3249" xmlns:xlink="http://www.w3.org/1999/xlink" width="200" height="200"><path d="M512 64C264.8 64 64 264.8 64 512s200.8 448 448 448 448-200.8 448-448S759.2 64 512 64z m256 192c-7.2 7.2-155.2 356-155.2 356S264 760 256.8 767.2c-4 0 156-356 156-356S775.2 248.8 768 256zM386.4 638.4c13.6-29.6 56-137.6 70.4-170.4L552 562.4c-26.4 12-160 73.6-165.6 76z" fill="#0389fb" p-id="3250"></path></svg>