<?xml version="1.0" standalone="no"?><!DOCTYPE svg PUBLIC "-//W3C//DTD SVG 1.1//EN" "http://www.w3.org/Graphics/SVG/1.1/DTD/svg11.dtd"><svg t="1745589322544" class="icon" viewBox="0 0 1024 1024" version="1.1" xmlns="http://www.w3.org/2000/svg" p-id="2673" xmlns:xlink="http://www.w3.org/1999/xlink" width="200" height="200"><path d="M512 64C264.8 64 64 264.8 64 512s200.8 448 448 448 448-200.8 448-448S759.2 64 512 64z m0 832c-212 0-384-172-384-384s172-384 384-384 384 172 384 384-172 384-384 384zM256 768c7.2-7.2 356-156 356-156S760 263.2 767.2 256c7.2-7.2-356 155.2-356 155.2S252 768 256 768z m296-205.6c-26.4 11.2-160.8 72.8-165.6 75.2 13.6-29.6 56-137.6 70.4-170.4L552 562.4z" fill="#575b66" p-id="2674"></path></svg>